<svg width="85" height="10" viewBox="0 0 85 10" fill="none" xmlns="http://www.w3.org/2000/svg">
<path fill-rule="evenodd" clip-rule="evenodd" d="M19.8687 0.10331C19.8687 0.159662 19.7891 0.187847 19.683 0.159671C19.5768 0.131495 19.4574 0.131493 19.4176 0.169061C19.3645 0.197237 19.1655 0.244197 18.9797 0.262981C18.7807 0.281765 18.5418 0.366293 18.4357 0.450821C18.3428 0.535349 18.2897 0.554136 18.3428 0.488392C18.3826 0.43204 18.3694 0.375681 18.2897 0.375681C18.2234 0.375681 18.1438 0.403864 18.1172 0.441432C18.0907 0.488392 17.9049 0.619873 17.6926 0.751361C17.4803 0.882849 17.3476 0.929816 17.4007 0.864072C17.5467 0.685624 17.3344 0.732584 16.9761 0.957992C16.7903 1.08009 16.6975 1.10826 16.7505 1.03312C16.8567 0.911026 16.8434 0.911026 16.6046 1.03312C16.4719 1.10826 16.3127 1.21157 16.2596 1.26792C16.2065 1.31488 16.1004 1.37123 16.0207 1.37123C15.7156 1.39941 15.7023 1.41819 15.888 1.50272C16.0207 1.56847 16.034 1.59664 15.9279 1.60603C15.835 1.61542 15.7023 1.62482 15.6227 1.63421C15.5563 1.63421 15.5032 1.67178 15.5298 1.69995C15.5829 1.80326 15.0654 2.16017 14.946 2.10381C14.8796 2.07564 14.7867 2.12259 14.7336 2.21651C14.6938 2.30104 14.4815 2.48888 14.2692 2.62976C14.0702 2.77064 13.8977 2.95849 13.8977 3.04302C13.8977 3.12754 13.8446 3.20268 13.765 3.20268C13.6987 3.21207 13.5792 3.22146 13.5129 3.23086C13.4466 3.23086 13.3404 3.27782 13.2741 3.32478C13.2077 3.38113 13.2475 3.38113 13.3537 3.33417C13.4996 3.27781 13.5262 3.2966 13.4598 3.4187C13.4067 3.51262 13.3669 3.59714 13.3669 3.62532C13.3669 3.6441 13.2741 3.63471 13.1679 3.60654C13.0485 3.56897 12.9291 3.61592 12.876 3.71924C12.8229 3.82255 12.6769 3.98222 12.5443 4.07614C12.4248 4.17006 12.3452 4.28276 12.3718 4.32033C12.4116 4.3579 12.2656 4.41425 12.0666 4.44243C11.7879 4.48939 11.642 4.44243 11.4164 4.2452C11.2439 4.10432 11.1112 3.95404 11.1112 3.89769C11.1112 3.78498 10.461 3.38113 10.2753 3.38113C10.1956 3.38113 10.1824 3.35295 10.2222 3.31539C10.2753 3.28721 10.1691 3.16511 9.98334 3.04302C9.79757 2.92092 9.70469 2.79882 9.7843 2.77064C9.86392 2.74247 9.917 2.65795 9.90373 2.6016C9.90373 2.51707 9.87719 2.51707 9.82411 2.6016C9.7843 2.68612 9.69143 2.69551 9.5322 2.62976C9.39951 2.5828 9.25355 2.56402 9.22701 2.59219C9.1872 2.62037 9.12086 2.53584 9.06778 2.40435C9.00143 2.21651 8.85548 2.14138 8.4176 2.06624C8.11241 2.01928 7.70107 1.90658 7.50204 1.84083C7.17031 1.71874 7.11724 1.71874 6.99782 1.85962C6.9182 1.96294 6.86513 1.97233 6.86513 1.89719C6.86513 1.80327 6.71917 1.78448 6.24148 1.84083C5.4188 1.92536 5.07381 2.01928 4.71555 2.25408C4.55632 2.3574 4.34401 2.44192 4.25113 2.44192C4.15825 2.44192 4.07863 2.47949 4.07863 2.53584C4.07863 2.5828 3.98575 2.62976 3.86633 2.62976C3.68056 2.62976 3.68056 2.65794 3.81325 2.77064C3.90614 2.84578 3.93267 2.92091 3.86633 2.92091C3.25596 2.97727 2.87116 3.12755 2.95077 3.25904C2.99058 3.36235 2.96404 3.38112 2.81808 3.34356C2.67212 3.30599 2.56597 3.37173 2.48635 3.5314C2.40674 3.66288 2.26078 3.86951 2.14136 3.97283L1.92905 4.17945L2.02194 3.96344C2.11482 3.74742 2.11482 3.73803 1.86271 3.91648C1.71675 4.0104 1.66367 4.1137 1.71675 4.14188C1.76983 4.17005 1.74329 4.27337 1.63713 4.36729C1.50444 4.48938 1.49118 4.60209 1.57079 4.7148C1.6504 4.80872 1.63714 4.89324 1.55752 4.93081C1.49118 4.95898 1.42483 4.91203 1.42483 4.81811C1.42483 4.68662 1.39829 4.67723 1.30541 4.78054C1.23906 4.84628 1.13291 4.88385 1.0533 4.84628C0.986954 4.8181 0.89407 4.88385 0.840994 5.00595C0.721573 5.33467 0.748111 5.36284 1.04003 5.25953C1.29214 5.16561 1.30541 5.16561 1.17272 5.33467C1.07984 5.45677 0.933878 5.50373 0.787919 5.47555C0.628691 5.44737 0.549077 5.49433 0.535808 5.63521C0.50927 5.79487 0.562346 5.82305 0.787919 5.7667C0.973685 5.72913 1.02676 5.74792 0.973684 5.81366C0.920608 5.87001 0.774652 5.91697 0.628693 5.91697C0.496003 5.91697 0.350041 5.98271 0.310234 6.06724C0.257158 6.16116 0.283697 6.18934 0.403118 6.14238C0.482732 6.10481 0.442924 6.16117 0.310234 6.27387C0.164275 6.38658 0.0979312 6.50867 0.137738 6.54624C0.190814 6.57442 0.164277 6.65895 0.084663 6.73408C-0.0347581 6.81861 -0.0214891 6.85617 0.084663 6.85617C0.164277 6.85617 0.230623 6.80921 0.230623 6.76225C0.230623 6.55563 0.469463 6.68712 0.535808 6.93131C0.588884 7.13794 0.681767 7.20367 0.920609 7.19428C1.23907 7.18489 1.67694 6.9501 1.59733 6.828C1.57079 6.79043 1.6504 6.76225 1.78309 6.76225C1.91578 6.76225 2.10155 6.67772 2.18116 6.57441C2.32712 6.41475 2.31385 6.40536 2.11482 6.45232C1.96886 6.48989 2.02194 6.42414 2.26078 6.24569C2.45981 6.10481 2.61904 5.94515 2.61904 5.90758C2.61904 5.86062 2.71193 5.82305 2.81808 5.82305C2.92423 5.82305 3.01711 5.77609 3.01711 5.71035C3.01711 5.64461 3.16307 5.49433 3.33557 5.36284C3.52134 5.22196 3.68056 5.06229 3.7071 4.98716C3.77345 4.77114 4.19806 4.50817 4.47671 4.50817C4.62266 4.50817 4.74209 4.47061 4.74209 4.43304C4.74209 4.38608 4.88804 4.30155 5.07381 4.2452C5.49842 4.10432 5.57803 4.10431 5.47188 4.22641C5.39227 4.31094 5.65765 4.35789 6.04245 4.32972C6.12206 4.32032 6.20168 4.34851 6.20168 4.38608C6.20168 4.43304 6.02918 4.4706 5.80361 4.46121C5.5913 4.46121 5.40554 4.43304 5.40554 4.39547C5.40554 4.28276 5.034 4.31094 4.92785 4.43304C4.86151 4.49878 4.88804 4.50817 5.00747 4.46121C5.14016 4.40486 5.16669 4.43304 5.11362 4.57392C5.06054 4.7148 5.10035 4.76175 5.25958 4.74297C5.379 4.73358 5.55149 4.79933 5.64438 4.90264C5.73726 4.99656 5.88322 5.04351 5.96283 5.01534C6.05571 4.97777 6.06898 4.99656 6.01591 5.05291C5.96283 5.10926 6.04245 5.21258 6.20168 5.27832C6.34764 5.34406 6.46706 5.46616 6.46706 5.56008C6.46706 5.64461 6.57321 5.7761 6.71917 5.84184C6.85186 5.90758 6.97128 6.0015 6.98455 6.05785C6.98455 6.10481 7.0907 6.22691 7.21012 6.32083C7.31627 6.42414 7.38262 6.51807 7.35608 6.54624C7.31627 6.56503 7.43569 6.68711 7.62146 6.8186C7.80722 6.95009 7.91338 7.10976 7.88684 7.18489C7.84703 7.25064 7.90011 7.33517 8.00626 7.36334C8.11241 7.39152 8.19203 7.48544 8.19203 7.56057C8.19203 7.6451 8.25837 7.68267 8.32472 7.65449C8.40433 7.62632 8.45741 7.6545 8.45741 7.72024C8.45741 7.80477 8.49722 7.80477 8.5901 7.70145C8.69625 7.58875 8.72279 7.60754 8.72279 7.77659C8.72279 7.91747 8.81567 8.02079 8.98817 8.04896C9.13413 8.07714 9.21374 8.13348 9.17393 8.18044C9.10759 8.26497 9.45258 8.34011 10.1558 8.39646C10.461 8.41525 10.5804 8.38708 10.5804 8.28376C10.5804 8.18045 10.4743 8.16167 10.116 8.19923C9.49239 8.27437 9.5322 8.19923 10.1691 8.07713C10.461 8.02078 10.8193 7.90808 10.9785 7.81416C11.2439 7.66389 11.2572 7.63571 11.0581 7.523C10.8724 7.4103 10.8458 7.4197 10.8458 7.58875C10.8458 7.69207 10.7529 7.79538 10.6601 7.82355C10.5141 7.86112 10.4876 7.83295 10.5274 7.72024C10.5937 7.57936 10.5804 7.57935 10.4212 7.71084C10.2487 7.86111 9.85065 7.85173 9.98334 7.70145C10.0231 7.65449 9.90373 7.63571 9.70469 7.65449C9.49239 7.66388 9.39951 7.63571 9.42604 7.56996C9.46585 7.50422 9.37297 7.45726 9.24028 7.45726C8.93509 7.45726 8.92182 7.49483 9.22701 7.73902C9.39951 7.8893 9.39951 7.90808 9.24028 7.81416C9.12086 7.75781 8.98817 7.72964 8.94836 7.7672C8.89528 7.79538 8.85548 7.73903 8.85548 7.62632C8.85548 7.40092 9.08105 7.26942 9.43931 7.31638C9.62508 7.33517 9.66489 7.30699 9.59854 7.18489C9.5322 7.0534 9.57201 7.03462 9.79758 7.07219C9.95681 7.10037 10.2222 7.09097 10.3947 7.04401C10.5937 6.98766 10.7131 6.98766 10.7131 7.04401C10.7131 7.10036 10.6335 7.13793 10.5274 7.13793C10.1558 7.13793 10.2089 7.27881 10.5937 7.2882C10.7928 7.29759 10.9387 7.26003 10.8989 7.22246C10.8591 7.1755 10.8989 7.13793 10.9785 7.13793C11.0714 7.13793 11.1643 7.22246 11.2041 7.32577C11.2837 7.55118 11.3633 7.56057 11.7216 7.37273C11.8808 7.2976 12.04 7.26943 12.0931 7.2976C12.1329 7.32578 12.1727 7.30699 12.1727 7.25064C12.1727 7.1849 12.2391 7.13793 12.3054 7.13793C12.385 7.13793 12.3718 7.24125 12.2523 7.40091C12.1197 7.57936 11.9472 7.66389 11.695 7.68267C11.3235 7.70146 10.8989 7.88929 11.2174 7.88929C11.35 7.88929 11.3501 7.93626 11.2306 8.09592C11.1245 8.23993 11.1643 8.25245 11.35 8.13348C11.5093 8.03956 11.6022 7.91747 11.5624 7.8799C11.5225 7.83294 11.5889 7.79537 11.7083 7.79537C11.841 7.79537 11.8808 7.83295 11.8145 7.90808C11.7614 7.97383 11.9472 7.87052 12.2258 7.67328C12.5177 7.48544 12.7964 7.32577 12.8627 7.32577C12.9291 7.32577 13.0352 7.22246 13.1016 7.09097C13.1679 6.95948 13.3006 6.86557 13.3935 6.87496C13.4864 6.89375 13.566 6.85617 13.566 6.80921C13.619 6.5838 13.8048 6.38657 14.0038 6.38657C14.11 6.38657 14.1763 6.36779 14.1365 6.33961C14.0702 6.29265 15.1317 5.49433 15.3307 5.42859C15.5431 5.37224 16.2463 4.8275 16.1932 4.76176C16.1667 4.72419 16.2994 4.64905 16.5117 4.5927C16.7107 4.54574 17.1221 4.33911 17.414 4.14188C18.1438 3.6441 18.4755 3.60653 18.9532 3.94465C19.1655 4.09492 19.338 4.26398 19.338 4.32033C19.338 4.37668 19.3911 4.40486 19.4574 4.36729C19.5238 4.33911 19.6034 4.41425 19.6299 4.52696C19.6564 4.64905 19.7493 4.74297 19.8422 4.74297C19.9351 4.74297 20.1209 4.86506 20.2668 5.02473C20.5587 5.33466 20.6118 5.49433 20.3995 5.40041C20.1474 5.2877 20.2668 5.62582 20.5322 5.75731C20.6782 5.83245 20.7578 5.91697 20.7047 5.94515C20.6118 6.02029 21.3151 6.76225 21.4743 6.76225C21.5406 6.76225 21.5937 6.82799 21.5937 6.91252C21.5937 7.11915 22.0847 7.54179 22.1908 7.41969C22.2306 7.37273 22.3501 7.32577 22.4297 7.32577C22.5491 7.32577 22.5491 7.34456 22.4297 7.40091C22.3235 7.44787 22.3235 7.51361 22.4695 7.6451C22.5756 7.74841 22.6552 7.77659 22.6552 7.71084C22.6552 7.6451 22.7216 7.62632 22.7879 7.65449C22.8675 7.69206 22.9074 7.7766 22.8941 7.86112C22.8277 8.08653 23.2656 8.2368 23.5841 8.10531C23.7964 8.002 23.8229 8.0114 23.7566 8.14288C23.7035 8.2368 23.73 8.27437 23.8096 8.2368C23.8893 8.19924 24.0219 8.2368 24.1148 8.31193C24.2343 8.41525 24.3271 8.42464 24.4466 8.35889C24.5394 8.30254 24.6721 8.26497 24.7252 8.27436C24.7916 8.28376 24.9508 8.28376 25.0835 8.27436C25.309 8.26497 25.309 8.24619 25.1233 8.12409C24.8314 7.91747 25.11 7.60753 25.5744 7.61692C25.8796 7.61692 25.8796 7.62632 25.6408 7.70145C25.4152 7.7672 25.4152 7.78598 25.6142 7.78598C25.7336 7.79538 25.8796 7.80477 25.9327 7.81416C25.9725 7.83295 26.0256 7.7672 26.0521 7.68267C26.0654 7.58875 25.9592 7.50422 25.7469 7.46665C25.4417 7.41969 25.4285 7.40091 25.6142 7.19428C25.8133 6.98766 25.8 6.97827 25.4948 7.02523C25.2427 7.05341 25.1896 7.03463 25.256 6.92192C25.3621 6.70591 25.9062 6.87496 25.9194 7.12854C25.946 7.46665 26.0654 7.44787 26.1583 7.10036C26.2113 6.93131 26.344 6.72469 26.4767 6.65894C26.6757 6.54624 26.689 6.54623 26.5431 6.67772C26.344 6.85617 26.2113 7.54179 26.3838 7.46665C26.4502 7.42908 26.5033 7.34456 26.5033 7.26942C26.5033 7.19429 26.5961 7.10976 26.7023 7.08158C26.8084 7.04401 26.9013 6.96888 26.9013 6.90313C26.9013 6.83739 27.0207 6.76226 27.1667 6.73408C27.3392 6.70591 27.4586 6.57441 27.5117 6.39596C27.5648 6.2269 27.6311 6.11421 27.6577 6.13299C27.6842 6.16117 27.9894 5.99211 28.3344 5.7667C28.7059 5.52251 28.9846 5.40041 29.0376 5.45676C29.1438 5.58825 29.2632 5.44738 29.2234 5.23136C29.1836 5.09048 29.3163 5.02473 29.5949 5.0623C29.6613 5.07169 29.6746 5.03412 29.6347 4.98716C29.5286 4.86506 29.9134 4.66783 30.0992 4.75236C30.2186 4.79932 30.2318 4.77115 30.1788 4.66784C30.0726 4.47061 30.338 4.3485 30.4972 4.51756C30.5901 4.62087 30.6166 4.62088 30.6166 4.52696C30.6166 4.46121 30.7493 4.37668 30.9218 4.32972C31.3464 4.21701 32.3416 4.60209 32.3416 4.88385C32.3416 4.9402 32.3947 4.96837 32.4478 4.9402C32.5008 4.92141 32.5672 4.97777 32.5672 5.08108C32.5805 5.175 32.6866 5.32527 32.7928 5.4098C32.9122 5.48493 33.0051 5.59764 33.0051 5.6446C33.0051 5.78548 33.4562 6.10481 33.6685 6.10481C33.8012 6.10481 33.8145 6.13299 33.7216 6.17995C33.6154 6.22691 33.6951 6.33022 33.9472 6.48988C34.1595 6.63076 34.332 6.71529 34.332 6.67772C34.332 6.64954 34.3983 6.68712 34.4647 6.76225C34.5708 6.88435 34.5973 6.87496 34.5973 6.73408C34.5973 6.64955 34.677 6.57441 34.7698 6.57441C34.876 6.57441 34.8627 6.53684 34.73 6.48049C34.5841 6.41475 34.5708 6.38657 34.7035 6.38657C34.8097 6.38657 34.9158 6.4711 34.9556 6.57441C34.9954 6.67772 35.0883 6.76225 35.1546 6.76225C35.221 6.76225 35.2343 6.71529 35.1945 6.66833C35.1414 6.61198 35.2608 6.57441 35.4466 6.57441C35.6323 6.57441 35.8048 6.61198 35.8048 6.66833C35.8181 6.71529 35.8314 6.81861 35.8446 6.87496C35.8712 6.99706 36.1896 6.98767 36.3223 6.87496C36.3621 6.83739 36.4948 6.79983 36.6408 6.78104C36.7735 6.76226 37.0123 6.65894 37.1715 6.55563C37.3175 6.44293 37.3706 6.38657 37.291 6.42414C37.1981 6.46171 37.1185 6.44292 37.1185 6.38657C37.1185 6.31143 37.2379 6.29265 37.4236 6.33022C37.6359 6.36779 37.7819 6.32083 37.9146 6.19873C38.0075 6.10481 38.1534 6.04846 38.2198 6.07664C38.2861 6.10482 38.5117 5.9921 38.7107 5.83244C38.923 5.67278 39.1752 5.54129 39.2813 5.54129C39.3875 5.54129 39.5732 5.45676 39.7059 5.35345C39.8386 5.25014 40.0774 5.16561 40.2367 5.16561C40.4092 5.16561 40.5684 5.09986 40.6215 5.02473C40.6613 4.94959 40.7542 4.88385 40.8338 4.88385C40.9134 4.88385 40.9532 4.92142 40.9134 4.95899C40.8869 4.99656 41.0328 5.04352 41.2451 5.05291C41.484 5.0623 41.6299 5.02473 41.6299 4.95899C41.6432 4.88385 41.7095 4.90264 41.8157 4.99656C41.9086 5.09048 42.0413 5.16561 42.0943 5.16561C42.2536 5.16561 43.5009 5.83244 44.0316 6.19873C44.841 6.76225 45.6106 7.15671 45.8097 7.10036C45.9158 7.07219 46.0352 7.09097 46.075 7.14732C46.1281 7.19428 46.221 7.21307 46.2873 7.18489C46.3537 7.14732 46.4068 7.19429 46.4068 7.26942C46.4068 7.34456 46.4598 7.42909 46.5262 7.45726C46.7252 7.55118 47.0702 7.41031 47.0702 7.25064C47.0702 7.12855 47.11 7.13793 47.2692 7.2882C47.3754 7.38212 47.4683 7.41969 47.4683 7.37273C47.4683 7.31638 47.5081 7.32577 47.5744 7.38212C47.7071 7.523 48.8748 7.31638 48.835 7.16611C48.8085 7.10037 48.8881 7.07219 49.034 7.10036C49.1933 7.13793 49.1667 7.10036 48.9412 6.95948C48.5962 6.73407 48.636 6.71529 49.1136 6.86556C49.379 6.95948 49.5117 6.9407 49.8567 6.76225C50.1752 6.60259 50.2415 6.52745 50.0955 6.4711C50.0027 6.42414 49.8169 6.41474 49.6975 6.44292C49.5648 6.4711 49.4586 6.45232 49.4586 6.40536C49.4586 6.26448 49.7638 6.21752 50.0027 6.32083C50.215 6.41475 51.0509 6.22691 51.0509 6.09542C51.0509 6.05785 51.1571 6.01089 51.2898 5.99211C51.5684 5.93576 51.6348 5.63521 51.3561 5.63521C51.2632 5.63521 51.1836 5.58825 51.1836 5.5319C51.1836 5.48494 51.2367 5.45676 51.303 5.48494C51.3694 5.51312 51.449 5.44737 51.4888 5.34406C51.533 5.21883 51.4755 5.20631 51.3163 5.30649C51.0509 5.47554 50.8519 5.86062 51.0775 5.75731C51.1703 5.72913 51.1836 5.74792 51.1305 5.80427C51.0775 5.87001 50.8784 5.90758 50.6794 5.90758C50.4538 5.89819 50.4007 5.87941 50.56 5.85123C50.7059 5.82305 50.7855 5.71974 50.7855 5.5319C50.7855 5.38163 50.8253 5.26892 50.8917 5.26892C51.1438 5.29709 51.3296 5.25013 51.2632 5.175C51.2102 5.12804 51.2898 5.09986 51.4092 5.11865C51.5419 5.13743 51.7276 5.15622 51.8205 5.15622C52.0196 5.16561 52.0328 5.46616 51.8205 5.61643C51.7276 5.68217 51.7144 5.72913 51.7674 5.72913C51.9665 5.72913 52.3911 5.32527 52.3247 5.20318C52.2849 5.11865 52.3778 5.09986 52.6565 5.11865C52.882 5.14682 53.0147 5.11865 52.9749 5.07169C52.9218 5.01534 53.0015 4.97777 53.1474 4.97777C53.2801 4.97777 53.5057 4.90264 53.6516 4.80872C53.7976 4.7148 53.9834 4.64905 54.0762 4.67723C54.1559 4.69601 54.5407 4.66783 54.9255 4.61148C55.5093 4.51756 55.6287 4.52695 55.7216 4.64905C55.788 4.72418 55.9074 4.78993 56.0003 4.78993C56.0931 4.78993 56.2258 4.86507 56.2922 4.95899C56.531 5.26893 57.2077 5.91697 57.6987 6.29265C57.9641 6.48988 58.1631 6.67773 58.1366 6.69651C58.0702 6.74347 58.946 7.23185 59.0787 7.23185C59.1185 7.23185 59.2777 7.31638 59.4369 7.41969C59.6492 7.56057 59.7687 7.57936 59.9013 7.50422C60.034 7.41969 60.0738 7.42909 60.0738 7.54179C60.0738 7.71085 60.4321 7.82355 60.5515 7.69206C60.6046 7.62632 60.6842 7.63571 60.8036 7.70145C60.9363 7.77659 61.0558 7.77659 61.2548 7.71084C61.4007 7.65449 61.6396 7.60753 61.7855 7.60753C61.9315 7.60753 62.1305 7.54179 62.25 7.46665C62.3561 7.39152 62.5286 7.32577 62.6215 7.32577C62.7542 7.32577 62.7409 7.2976 62.595 7.23185C62.4357 7.15672 62.449 7.13793 62.7011 7.13793C62.8736 7.13793 62.993 7.09098 62.9665 7.01584C62.9399 6.95949 62.9665 6.90313 63.0196 6.90313C63.2053 6.90313 63.6432 6.54624 63.5636 6.45232C63.5105 6.39597 63.5901 6.37719 63.7494 6.40536C64.0811 6.47111 64.9303 5.89819 64.7711 5.71974C64.718 5.654 64.7313 5.63521 64.8241 5.67278C64.9038 5.70096 65.0497 5.67278 65.1426 5.59764C65.2488 5.53189 65.5141 5.40041 65.753 5.31588C65.9918 5.23135 66.1776 5.12805 66.1776 5.09048C66.1776 5.05291 66.3766 5.02473 66.6287 5.02473C66.8808 5.02473 67.0533 5.0529 67.0268 5.08108C66.9472 5.175 67.3187 5.36285 67.4116 5.28771C67.4647 5.25953 67.5045 5.27832 67.5045 5.34406C67.5045 5.4098 67.6372 5.54129 67.8097 5.6446C67.9954 5.74791 68.0353 5.81366 67.9158 5.82305C67.6903 5.82305 68.0485 6.2363 68.5262 6.52745C68.6987 6.63076 68.8314 6.77165 68.8314 6.828C68.8314 6.97827 69.3356 7.17551 69.7602 7.20368C69.946 7.21307 70.1052 7.26942 70.1318 7.32577C70.1583 7.37273 70.2512 7.39152 70.3308 7.35395C70.4104 7.31638 70.4369 7.35395 70.3839 7.44787C70.3308 7.55119 70.4104 7.60753 70.6758 7.65449C71.1933 7.72963 71.7638 7.61693 72.1354 7.35395C72.3079 7.24125 72.5069 7.13793 72.5732 7.13793C72.6396 7.13793 72.6529 7.09097 72.6131 7.04401C72.5732 6.98766 72.4671 6.95009 72.4008 6.95009C72.3211 6.95009 72.2946 6.98766 72.3477 7.03462C72.4273 7.13793 71.9098 7.37273 71.7904 7.2882C71.7373 7.26003 71.6179 7.28821 71.5117 7.34456C71.2862 7.47605 70.9544 7.523 70.9544 7.42908C70.9544 7.38212 71.1137 7.26942 71.2994 7.1755C71.4852 7.08158 71.724 6.9501 71.8169 6.88435C71.9098 6.81861 72.0292 6.79982 72.0956 6.83739C72.1619 6.87496 72.1221 6.8186 72.016 6.72468C71.9098 6.62137 71.8833 6.56502 71.9761 6.60259C72.0558 6.64016 72.215 6.61198 72.3211 6.53684C72.4273 6.4617 72.5467 6.41474 72.5865 6.44292C72.6263 6.48049 72.7856 6.44293 72.9315 6.36779C73.0907 6.29265 73.1703 6.19874 73.1173 6.17056C73.0775 6.13299 73.104 6.10481 73.1836 6.10481C73.2632 6.10481 73.3163 6.18934 73.303 6.29265C73.2898 6.40535 73.2102 6.47111 73.0775 6.45232C72.958 6.44293 72.8917 6.48989 72.9182 6.5932C72.958 6.78104 72.7325 6.81861 72.6396 6.64016C72.5865 6.55563 72.5334 6.56502 72.4273 6.66833C72.3211 6.77164 72.3609 6.83739 72.5865 6.92192C72.8386 7.01584 72.9448 6.99705 73.303 6.79982C73.5286 6.67773 73.7807 6.57441 73.8471 6.57441C73.9134 6.57441 74.0461 6.50867 74.139 6.43353C74.2319 6.349 74.2451 6.29265 74.1655 6.29265C74.0992 6.29265 73.993 6.21752 73.94 6.1236C73.8736 6.0015 73.9002 5.99211 74.0196 6.07664C74.0992 6.13299 74.2584 6.16117 74.3513 6.13299C74.4575 6.10481 74.5636 6.15177 74.6167 6.22691C74.6698 6.33962 74.7759 6.349 75.0811 6.29265C75.2934 6.24569 75.4659 6.2363 75.4659 6.27387C75.4659 6.31144 75.6649 6.33022 75.8905 6.33022C76.1426 6.32083 76.3151 6.26447 76.3018 6.20812C76.2753 6.15177 76.3284 6.10481 76.408 6.10481C76.4876 6.10481 76.5141 6.18934 76.4611 6.29265C76.3815 6.48049 76.4876 6.52745 76.8989 6.48988C76.9918 6.48049 77.0449 6.52746 77.0316 6.5932C77.0051 6.64955 77.0582 6.71529 77.1245 6.71529C77.5359 6.75286 77.9737 6.88435 77.9207 6.95948C77.8809 6.99705 77.9737 7.01584 78.1197 6.99705C78.2922 6.97827 78.3851 7.00644 78.3851 7.10036C78.3851 7.1755 78.4381 7.22246 78.5045 7.19428C78.5708 7.15671 78.6505 7.18489 78.677 7.24124C78.7035 7.29759 78.8893 7.34456 79.0883 7.34456C79.2874 7.34456 79.5129 7.4103 79.5926 7.47604C79.6722 7.55118 79.8579 7.60753 79.9906 7.60753C80.1366 7.60753 80.2427 7.63572 80.2427 7.67328C80.2427 7.72024 80.3887 7.79538 80.5745 7.86112C80.7602 7.91748 80.8797 7.92686 80.8398 7.88929C80.8 7.84233 80.8398 7.79538 80.9327 7.77659C81.0123 7.75781 81.0389 7.68267 80.9858 7.61692C80.9062 7.54179 80.8398 7.5324 80.7072 7.60753C80.5877 7.67328 80.4949 7.66388 80.3754 7.56057C80.2295 7.43848 80.2825 7.41969 80.7072 7.41969C81.1318 7.41969 81.1848 7.40091 81.0256 7.26942C80.9062 7.16611 80.8266 7.15672 80.8 7.23185C80.7602 7.2976 80.6541 7.27882 80.4683 7.16611C80.2295 7.01584 80.2029 7.01584 80.2825 7.15672C80.3356 7.26943 80.3091 7.2976 80.1631 7.26003C79.7783 7.15672 79.9906 6.99705 80.4683 7.03462C80.5479 7.04401 80.6541 7.00644 80.7072 6.95009C80.747 6.90313 80.8531 6.85617 80.9195 6.85617C80.9991 6.85617 81.0256 6.89374 80.9725 6.9407C80.9327 6.99705 81.0123 7.02523 81.1583 7.01584C81.3352 7.00958 81.3396 6.9501 81.1716 6.83739C80.8398 6.61198 80.455 6.61199 80.5612 6.828C80.6275 6.96888 80.601 6.95948 80.4418 6.80921C80.3091 6.69651 80.2825 6.61199 80.3754 6.5932C80.4418 6.57442 80.5081 6.48049 80.5081 6.38657C80.5081 6.29265 80.5745 6.17995 80.6408 6.15177C80.7337 6.1142 80.7602 6.17056 80.6939 6.33022C80.6143 6.55563 80.6408 6.57441 81.0389 6.57441C81.2777 6.57441 81.4237 6.61198 81.3706 6.66833C81.3175 6.72468 81.4635 6.76225 81.7156 6.76225C82.1137 6.76225 82.1269 6.77165 81.9014 6.88435C81.7156 6.98766 81.7023 7.03462 81.835 7.09097C81.9544 7.13793 81.981 7.12854 81.9146 7.0534C81.8483 6.98766 81.9677 6.93131 82.2331 6.88435C82.4719 6.85618 82.6842 6.77165 82.724 6.7059C82.7638 6.63077 82.8965 6.57441 83.016 6.57441C83.1752 6.57441 83.1885 6.5932 83.0558 6.65894C82.9098 6.71529 82.9231 6.75286 83.1088 6.79982C83.4008 6.87496 83.6263 6.72468 83.5069 6.52745C83.4538 6.42414 83.3477 6.38657 83.1885 6.43353C83.016 6.48049 83.0027 6.46171 83.1221 6.37718C83.2415 6.29265 83.3742 6.30204 83.7059 6.42414C84.2367 6.61198 84.2234 6.61198 84.2234 6.37718C84.2234 6.25508 84.2765 6.20812 84.3959 6.25508C84.4755 6.29265 84.4623 6.26448 84.3561 6.18934C84.25 6.1142 84.0907 5.99211 83.9979 5.91697C83.8519 5.79487 83.8386 5.79488 83.905 5.93576C83.9581 6.05786 83.9183 6.07664 83.7059 6.03907C83.5467 6.01089 83.4273 5.94515 83.4273 5.89819C83.4273 5.85123 83.4804 5.83244 83.5467 5.87001C83.6131 5.89819 83.706 5.8794 83.759 5.83244C83.7988 5.77609 83.9315 5.7667 84.0509 5.79488C84.1704 5.83245 84.2367 5.81366 84.1836 5.7667C84.1438 5.71035 84.2102 5.61642 84.3428 5.55068C84.5817 5.42858 84.5817 4.97777 84.3428 4.97777C84.2765 4.97777 84.2632 4.92142 84.3031 4.85568C84.3429 4.78054 84.2102 4.64905 84.0244 4.54574C83.8386 4.45182 83.6927 4.29216 83.6927 4.19824C83.6927 4.03857 83.6794 4.03857 83.4804 4.17006C83.2946 4.30155 83.2415 4.29215 82.9231 4.08553C82.724 3.95404 82.525 3.85073 82.4852 3.85073C82.3127 3.85073 81.6758 3.36235 81.6493 3.21208C81.6227 3.10876 81.3839 3.00544 80.9593 2.92091C80.601 2.85517 80.1631 2.71429 79.9906 2.62037C79.6456 2.42314 79.3803 2.38557 79.5262 2.54523C79.5793 2.62037 79.5129 2.62976 79.3006 2.5828C79.1281 2.54524 78.9291 2.50767 78.8495 2.49827C78.7831 2.49827 78.6372 2.43254 78.5443 2.36679C78.3055 2.21652 78.0932 2.22591 78.1462 2.38557C78.1728 2.46071 78.133 2.52646 78.0534 2.51706C77.987 2.51706 77.9339 2.47949 77.9472 2.44192C77.9605 2.40436 77.8941 2.33861 77.788 2.31043C77.6818 2.28226 77.5889 2.31044 77.5889 2.36679C77.5889 2.43254 77.5359 2.43254 77.4297 2.37618C77.2837 2.30105 76.408 2.28226 76.3018 2.348C76.2355 2.38557 75.9967 2.41375 75.718 2.43253C75.519 2.44193 75.4659 2.48888 75.519 2.5828C75.572 2.69551 75.5057 2.71429 75.1872 2.67672C74.8555 2.62976 74.7626 2.65794 74.7096 2.8176C74.6697 2.92092 74.5769 3.00545 74.5105 3.00545C74.4442 3.00545 74.4176 2.96787 74.4575 2.92091C74.4973 2.88335 74.3778 2.86457 74.2053 2.89275C74.0328 2.91153 73.9001 2.97727 73.9134 3.04302C73.9267 3.09937 73.8471 3.14633 73.7409 3.14633C73.6348 3.14633 73.4623 3.1839 73.3827 3.22147C73.2765 3.26843 73.2102 3.24964 73.2102 3.19329C73.2102 3.13693 73.1571 3.10876 73.0907 3.14633C73.0111 3.1745 72.9182 3.13693 72.8519 3.06179C72.7988 2.98666 72.6927 2.92091 72.6131 2.92091C72.5467 2.91152 72.4804 2.87396 72.4804 2.8176C72.4804 2.77064 72.3079 2.60159 72.1088 2.44192C71.8965 2.28226 71.7108 2.10382 71.6975 2.03807C71.6444 1.76571 71.2198 1.54029 71.2198 1.78448C71.2198 1.83144 71.3127 1.8784 71.4321 1.8784C71.5383 1.8784 71.5913 1.92536 71.5515 1.98171C71.4454 2.09442 70.9544 1.82206 70.9942 1.67178C71.0075 1.62482 70.9014 1.53091 70.7554 1.47455C70.6094 1.40881 70.4635 1.34306 70.4237 1.31488C70.3839 1.28671 70.1848 1.24914 69.9725 1.23975C69.747 1.23036 69.5479 1.18339 69.4948 1.13643C69.455 1.08008 69.2295 1.05191 69.0039 1.05191C68.6854 1.0613 68.6058 1.09887 68.6589 1.21157C68.7252 1.34306 68.712 1.34306 68.4997 1.21157C68.3139 1.08008 68.1812 1.0707 67.8495 1.14583C67.6239 1.19279 67.0799 1.30549 66.642 1.39941C66.1909 1.49333 65.8591 1.60604 65.8724 1.67178C65.8989 1.73753 65.8193 1.78448 65.7132 1.78448C65.607 1.78448 65.5141 1.85022 65.5141 1.93475C65.5141 2.00989 65.4611 2.05685 65.408 2.02867C65.2753 1.97232 64.718 2.31044 64.718 2.43253C64.718 2.47949 64.5588 2.54524 64.3597 2.57341C64.174 2.61098 63.8953 2.74247 63.7626 2.87395C63.6167 2.99605 63.4309 3.09937 63.3247 3.09937C63.2319 3.09937 63.0859 3.16511 62.9798 3.24964C62.8338 3.38112 62.8073 3.38113 62.6878 3.23086C62.5817 3.10876 62.5419 3.09936 62.449 3.20268C62.3561 3.30599 62.3296 3.30599 62.3296 3.1839C62.3296 3.09937 62.2102 2.95848 62.0642 2.86456C61.9182 2.77064 61.7988 2.63916 61.7988 2.56402C61.7988 2.48889 61.7457 2.45132 61.6794 2.47949C61.6131 2.50767 61.4538 2.42314 61.3344 2.29165C61.1752 2.1226 61.1619 2.06624 61.2813 2.1132C61.3875 2.15077 61.3344 2.09442 61.1619 2.0005C60.9496 1.87841 60.8833 1.7657 60.9363 1.6436C61.0027 1.52151 60.9894 1.49334 60.9098 1.56847C60.7506 1.72814 60.2729 1.49333 60.2729 1.25853C60.2729 1.14583 60.1269 1.0519 59.8748 0.995551C59.6625 0.948591 59.2777 0.845288 59.0256 0.770152C58.7868 0.695016 58.5081 0.629263 58.4285 0.619871C58.3489 0.610479 58.2162 0.58231 58.1498 0.544742C58.0702 0.507173 57.5395 0.497777 56.9556 0.516561C55.8808 0.544737 54.5672 0.798326 54.3814 1.01434C54.2488 1.17401 53.3597 1.50273 53.2536 1.43698C53.2138 1.39941 53.174 1.42759 53.174 1.49333C53.174 1.56847 53.0678 1.58725 52.882 1.55907C52.7095 1.5309 52.6565 1.5309 52.7493 1.55907C52.8688 1.59664 52.8024 1.67178 52.5105 1.79387C52.2849 1.89718 52.0461 1.95354 51.993 1.93475C51.8869 1.88779 51.2234 2.32922 51.2898 2.40435C51.3959 2.54523 51.2765 2.62977 50.9978 2.57341C50.7855 2.53585 50.6661 2.56402 50.613 2.66733C50.4007 3.0618 49.0473 3.19329 48.6625 2.85518C48.5696 2.78943 48.4502 2.75186 48.3839 2.78003C48.3175 2.80821 48.2644 2.78004 48.2644 2.72368C48.2644 2.66733 48.1185 2.52646 47.946 2.41375C47.6541 2.21652 47.601 2.16017 47.601 1.99111C47.601 1.95355 47.5479 1.98172 47.4816 2.05685C47.3887 2.16017 47.3091 2.16016 47.0569 2.02867C46.8845 1.94414 46.8048 1.8784 46.8845 1.8784C46.9508 1.8784 47.0968 1.93476 47.1896 1.99111C47.3223 2.08503 47.3223 2.06625 47.1896 1.89719C47.0835 1.78449 46.911 1.69996 46.7916 1.70935C46.6721 1.72814 46.5793 1.69996 46.566 1.66239C46.5527 1.52151 46.0883 1.32427 45.7831 1.31488C45.6239 1.31488 45.4514 1.26792 45.3983 1.21157C45.3452 1.15522 45.1329 1.13643 44.8676 1.174C44.496 1.22096 44.4297 1.20218 44.496 1.08008C44.5624 0.957986 44.4828 0.929807 44.0051 0.948591C43.1559 0.967375 41.8953 1.14583 41.9749 1.23975C42.0147 1.27732 41.8157 1.31488 41.537 1.31488C41.2053 1.31488 41.0992 1.34306 41.2053 1.39941C41.3513 1.46516 41.3513 1.48394 41.192 1.5309C41.0859 1.55908 40.9267 1.53091 40.8338 1.47455C40.7011 1.39003 40.6878 1.39003 40.7542 1.47455C40.8072 1.5403 40.7807 1.59664 40.7144 1.59664C40.6348 1.59664 40.5684 1.55907 40.5684 1.50272C40.5684 1.45576 40.4755 1.43699 40.3561 1.47455C40.1969 1.51212 40.1969 1.54968 40.3163 1.59664C40.4224 1.65299 40.3959 1.69996 40.1969 1.77509C39.9978 1.85023 39.905 1.85023 39.8651 1.75631C39.8121 1.69057 39.7855 1.69995 39.7855 1.79387C39.7723 1.88779 39.5467 2.01929 39.2548 2.10381C38.9629 2.17895 38.6179 2.32922 38.4852 2.43253C38.1667 2.66733 37.5165 2.66733 37.5165 2.43253C37.5165 2.33861 37.3971 2.20713 37.2512 2.14138C37.1052 2.07564 36.9858 1.97233 36.9858 1.91597C36.9858 1.85023 36.7204 1.66239 36.3887 1.49333C36.0702 1.31488 35.7916 1.09887 35.7916 1.01434C35.7916 0.826502 35.1679 0.572918 34.6504 0.544742C34.4647 0.525957 34.2656 0.469605 34.2391 0.403861C34.1993 0.338117 34.1197 0.300545 34.0666 0.328721C34.0002 0.356897 33.9206 0.33811 33.8808 0.29115C33.841 0.253582 33.5624 0.244192 33.2439 0.28176C32.9387 0.328721 32.607 0.338117 32.5141 0.309941C32.4212 0.281765 32.3416 0.309939 32.3416 0.366291C32.3416 0.422643 32.3018 0.460213 32.2487 0.450821C31.9701 0.394469 31.2801 0.572913 31.2801 0.704401C31.2801 0.779537 31.2138 0.845281 31.1341 0.845281C31.0678 0.845281 31.0413 0.892241 31.0811 0.939202C31.1341 1.00495 31.0545 1.02373 30.829 0.976772C30.6166 0.939204 30.484 0.95799 30.484 1.01434C30.484 1.07069 30.3513 1.14582 30.192 1.18339C29.8868 1.25853 29.794 1.26793 29.4622 1.2961C29.3694 1.30549 29.2897 1.36184 29.2897 1.41819C29.2897 1.49333 29.3694 1.48394 29.5286 1.39941C29.6613 1.32428 29.648 1.36184 29.4755 1.49333C29.3296 1.60604 29.0907 1.70935 28.9713 1.72813C28.8386 1.73753 28.6926 1.80327 28.6396 1.86901C28.5865 1.93476 28.4803 1.97233 28.414 1.96293C28.1353 1.92537 28.069 1.98172 28.2415 2.13199C28.3344 2.22591 28.3609 2.27287 28.3078 2.2353C28.2415 2.19774 28.1088 2.2353 28.0026 2.32922C27.8788 2.42941 27.839 2.42628 27.8832 2.31983C27.923 2.21652 27.9098 2.16956 27.8302 2.20712C27.7505 2.2353 27.6975 2.34801 27.6975 2.46072C27.6975 2.58281 27.6311 2.62977 27.5117 2.6016C27.379 2.56403 27.3392 2.59219 27.3923 2.68611C27.4321 2.77064 27.379 2.8176 27.2198 2.8176C27.0207 2.8176 27.0075 2.83639 27.1534 2.90214C27.3392 2.98666 27.2463 3.19329 27.0207 3.19329C26.9411 3.19329 26.9279 3.13694 26.9809 3.0712C27.0606 2.99606 27.0207 2.99606 26.8615 3.08998C26.7023 3.1839 26.6757 3.25903 26.7686 3.39052C26.8748 3.5314 26.8615 3.55018 26.7156 3.51262C26.6094 3.48444 26.4634 3.54079 26.3706 3.66289C26.2909 3.7662 26.1715 3.83194 26.1052 3.80377C26.0388 3.77559 25.9592 3.79437 25.9061 3.85073C25.7602 4.01978 25.5744 3.85073 25.5744 3.55958C25.5744 3.38113 25.5081 3.28721 25.3754 3.28721C25.256 3.28721 25.1764 3.20268 25.1764 3.08998C25.1764 2.87396 24.7783 2.348 24.6191 2.348C24.566 2.348 24.5129 2.30105 24.5129 2.2353C24.5129 2.17895 24.3537 1.98172 24.1679 1.81266C23.9158 1.57786 23.7831 1.51212 23.677 1.58725C23.5973 1.6436 23.4779 1.69056 23.4116 1.69056C23.3452 1.69056 23.3983 1.62482 23.5045 1.54029C23.7566 1.36184 23.6637 1.21157 23.3452 1.27731C23.1595 1.32427 23.1462 1.31488 23.3187 1.23035C23.4912 1.13643 23.4912 1.11765 23.3187 1.03312C23.2125 0.986162 23.1727 0.939202 23.2258 0.939202C23.2922 0.939202 23.2125 0.807716 23.0533 0.648051C22.8543 0.460211 22.6685 0.375688 22.4695 0.394472C22.3235 0.403864 22.1112 0.38507 22.0183 0.33811C21.9254 0.300542 21.806 0.281765 21.7795 0.309941C21.7397 0.338117 21.5008 0.300547 21.2487 0.225411C20.9833 0.150275 20.6516 0.112702 20.4393 0.15027C20.2005 0.19723 20.1209 0.187838 20.1872 0.10331C20.2403 0.0469578 20.2005 0 20.0811 0C19.9616 0 19.8687 0.0469578 19.8687 0.10331ZM35.3935 0.864072C35.3935 0.920424 35.3139 0.911026 35.1945 0.845281C35.0883 0.779537 34.9954 0.713795 34.9954 0.695011C34.9954 0.676227 35.0883 0.685615 35.1945 0.713791C35.3006 0.751359 35.3935 0.817112 35.3935 0.864072ZM16.2729 1.84083C16.1932 1.91597 16.0738 1.95354 16.034 1.91597C15.9942 1.87841 16.034 1.83145 16.1269 1.81266C16.2065 1.78449 16.2463 1.71874 16.2065 1.67178C16.1534 1.60604 16.18 1.59664 16.2729 1.63421C16.3923 1.69057 16.3923 1.73752 16.2729 1.84083ZM27.7373 2.86456C27.6975 2.94909 27.6311 2.99605 27.6046 2.96787C27.5648 2.9397 27.578 2.88335 27.6311 2.82699C27.7505 2.67672 27.8302 2.7049 27.7373 2.86456ZM41.4442 3.71924C41.4442 3.80376 41.5105 3.89769 41.6167 3.92587C41.7493 3.95404 41.7759 3.92586 41.7228 3.81316C41.6697 3.71924 41.683 3.67228 41.7626 3.70985C41.8422 3.73802 41.8953 3.83194 41.8953 3.89769C41.8953 3.97282 41.9749 4.01039 42.0678 3.98222C42.2668 3.93526 42.8241 4.27337 42.8109 4.44243C42.8109 4.52696 42.7843 4.52696 42.7312 4.43304C42.7047 4.37669 42.5853 4.32033 42.4791 4.32033C42.373 4.32033 42.2536 4.26398 42.2138 4.19824C42.1341 4.04797 41.7361 4.04797 41.4707 4.19824C41.3778 4.2452 41.2053 4.32972 41.0992 4.36729C40.9267 4.43303 40.9267 4.42364 41.0726 4.30155C41.2186 4.17006 41.1788 4.17006 40.7011 4.25459C40.4092 4.31094 40.2367 4.38607 40.303 4.41425C40.3694 4.44242 40.303 4.51756 40.1703 4.58331C39.9448 4.67723 39.905 4.67723 39.905 4.54574C39.905 4.36729 39.4936 4.40486 39.4007 4.5927C39.3609 4.66783 39.4007 4.69601 39.4803 4.66784C39.6794 4.57392 39.759 4.92141 39.5865 5.12804C39.3477 5.4098 39.0823 5.40041 39.1088 5.09987C39.1486 4.7054 39.1221 4.63026 38.9761 4.78993C38.8965 4.87446 38.8434 4.88385 38.8434 4.81811C38.8434 4.67723 39.414 4.40486 40.1703 4.17945C40.5021 4.08553 40.9134 3.90708 41.0992 3.78499C41.484 3.5314 41.4707 3.5314 41.4442 3.71924ZM55.0582 3.71924C54.8857 3.80376 54.7132 3.84133 54.6734 3.81316C54.6203 3.78498 54.6601 3.75681 54.753 3.75681C54.8459 3.75681 54.8724 3.70985 54.8326 3.66289C54.7928 3.60653 54.8857 3.56897 55.0582 3.56897H55.3501L55.0582 3.71924ZM56.0268 3.66289C55.987 3.70985 56.1197 3.78498 56.3187 3.81316C56.6504 3.8789 56.6504 3.88829 56.4249 3.95404C56.0533 4.05735 55.9339 4.05735 56.0268 3.95404C56.0666 3.90708 56.0401 3.84133 55.9604 3.80377C55.8278 3.74741 55.8941 3.56897 56.0401 3.56897C56.0799 3.56897 56.0666 3.60653 56.0268 3.66289ZM23.7831 3.85073C23.8229 3.89769 23.7964 3.94465 23.73 3.94465C23.6504 3.94465 23.5841 3.89769 23.5841 3.85073C23.5841 3.79437 23.6106 3.75681 23.6371 3.75681C23.677 3.75681 23.7433 3.79437 23.7831 3.85073ZM41.3115 4.62088C41.3513 4.65845 41.484 4.65844 41.6034 4.63027C41.7626 4.5927 41.7493 4.62088 41.5636 4.72419C41.2982 4.86507 40.9532 4.8181 40.7674 4.60209C40.6746 4.49878 41.1655 4.52696 41.3115 4.62088ZM52.9749 4.76176C53.1607 4.86507 53.174 4.89325 53.028 4.85568C52.9086 4.8275 52.7361 4.85568 52.6432 4.91203C52.5105 4.99656 52.4574 4.99656 52.4176 4.90264C52.3778 4.84629 52.2982 4.80871 52.2319 4.84628C52.1655 4.87445 52.1124 4.84628 52.1124 4.78993C52.1124 4.73358 52.2584 4.71479 52.484 4.75236C52.7626 4.78993 52.8024 4.78053 52.6432 4.7054C52.537 4.64905 52.5105 4.60209 52.5769 4.60209C52.6565 4.61148 52.829 4.67723 52.9749 4.76176ZM40.5286 4.79932C40.4092 4.85567 40.3296 4.93081 40.3694 4.98716C40.4224 5.03412 40.3296 5.07169 40.1836 5.07169C39.8519 5.07169 39.8121 4.81811 40.1438 4.76176C40.5949 4.67723 40.7807 4.69601 40.5286 4.79932ZM76.262 4.92142C76.262 4.9402 76.1692 4.98716 76.0497 5.01534C75.9436 5.04351 75.8905 5.03412 75.9303 4.97777C76.0099 4.88385 76.262 4.84628 76.262 4.92142ZM38.7638 5.40041C38.4188 5.57886 38.3525 5.48494 38.6577 5.25014C38.8036 5.13743 38.923 5.09986 38.9496 5.16561C38.9761 5.22196 38.8965 5.32527 38.7638 5.40041ZM77.2572 5.16561C77.3103 5.22196 77.297 5.25953 77.2307 5.25014C76.9653 5.22196 76.8989 5.26892 77.0582 5.40041C77.1776 5.50372 77.1776 5.54129 77.0714 5.54129C76.9918 5.54129 76.8857 5.47554 76.8459 5.40041C76.7928 5.32527 76.7132 5.2877 76.6468 5.31588C76.5805 5.34405 76.5274 5.34406 76.5274 5.30649C76.5274 5.26892 76.8326 5.14682 77.1511 5.08108C77.1643 5.07169 77.2174 5.11865 77.2572 5.16561ZM75.6384 5.32528C75.6118 5.39102 75.718 5.46615 75.864 5.49433C76.0099 5.5319 76.1293 5.59765 76.1293 5.654C76.1293 5.71035 76.0497 5.71035 75.9303 5.63521C75.7711 5.54129 75.7313 5.54129 75.7313 5.67278C75.7313 5.75731 75.6384 5.82305 75.5322 5.82305C75.4261 5.82305 75.3332 5.77609 75.3332 5.72913C75.3332 5.67278 75.3996 5.63521 75.4792 5.63521C75.5455 5.63521 75.572 5.58825 75.519 5.5319C75.4659 5.45676 75.3996 5.46615 75.3199 5.55068C75.2271 5.65399 75.1607 5.654 74.9749 5.51312C74.7626 5.37224 74.7626 5.33466 74.9351 5.25953C75.2005 5.13743 75.6782 5.1844 75.6384 5.32528ZM34.4647 5.45676C34.4647 5.51311 34.4116 5.52251 34.332 5.49433C34.2656 5.46615 34.1993 5.39102 34.1993 5.34406C34.1993 5.28771 34.2656 5.27831 34.332 5.30649C34.4116 5.33466 34.4647 5.4098 34.4647 5.45676ZM74.4707 5.44737C74.338 5.55068 74.1788 5.63521 74.1257 5.63521C73.9267 5.63521 74.1523 5.36285 74.3778 5.32528C74.5105 5.2971 74.6299 5.27831 74.6565 5.26892C74.683 5.26892 74.6034 5.34406 74.4707 5.44737ZM78.3851 5.58825C78.4514 5.6446 78.3718 5.68217 78.1993 5.68217C77.9472 5.68217 77.9339 5.654 78.0534 5.47555C78.133 5.35345 78.2126 5.31589 78.2391 5.38163C78.2656 5.44737 78.332 5.5319 78.3851 5.58825ZM73.8073 5.63521C73.7675 5.68217 73.648 5.72913 73.5684 5.72913C73.4755 5.72913 73.4888 5.69156 73.6082 5.63521C73.8603 5.52251 73.9134 5.52251 73.8073 5.63521ZM76.9122 5.67278C77.0449 5.78548 77.0316 5.80426 76.8459 5.78548C76.7132 5.7667 76.5805 5.71035 76.554 5.654C76.4876 5.49434 76.7264 5.51312 76.9122 5.67278ZM35.3935 5.72913C35.3935 5.77609 35.367 5.82305 35.3404 5.82305C35.3006 5.82305 35.2343 5.77609 35.1945 5.72913C35.1546 5.67278 35.1812 5.63521 35.2475 5.63521C35.3271 5.63521 35.3935 5.67278 35.3935 5.72913ZM36.8531 5.72913C36.8531 5.77609 36.8265 5.82305 36.8 5.82305C36.7602 5.82305 36.6939 5.77609 36.654 5.72913C36.6142 5.67278 36.6408 5.63521 36.7071 5.63521C36.7867 5.63521 36.8531 5.67278 36.8531 5.72913ZM75.1076 5.79488C75.0944 5.86062 75.2801 5.88879 75.5853 5.8794C75.8772 5.8794 76.0763 5.89819 76.0365 5.93576C76.0099 5.98272 75.718 6.01089 75.3863 6.01089C74.9749 6.01089 74.8157 5.97332 74.8821 5.90758C74.9219 5.85123 74.8821 5.7667 74.7892 5.71035C74.6432 5.64461 74.6698 5.63521 74.8688 5.66339C75.0147 5.68217 75.1209 5.73853 75.1076 5.79488ZM36.256 5.91697C36.2958 5.96393 36.2692 6.01089 36.2029 6.01089C36.1233 6.01089 36.0569 5.96393 36.0569 5.91697C36.0569 5.86062 36.0835 5.82305 36.11 5.82305C36.1498 5.82305 36.2162 5.86062 36.256 5.91697ZM37.3838 6.01089C37.3838 6.12359 37.291 6.19873 37.1715 6.19873C36.999 6.19873 36.9858 6.17056 37.1052 6.07664C37.1848 6.0015 37.2113 5.91698 37.1583 5.8888C37.1185 5.85123 37.145 5.82305 37.2246 5.82305C37.3175 5.82305 37.3838 5.90758 37.3838 6.01089ZM83.2681 6.05785C83.2283 6.08603 83.1487 6.03907 83.1088 5.94515C83.0292 5.81366 83.0425 5.80427 83.1752 5.8888C83.2681 5.95455 83.3079 6.02967 83.2681 6.05785ZM35.0618 6.01089C35.022 6.05785 34.9025 6.10481 34.8229 6.10481C34.73 6.10481 34.7433 6.06724 34.8627 6.01089C35.1148 5.89819 35.1679 5.89819 35.0618 6.01089ZM78.8628 6.31144C78.7831 6.34901 78.677 6.33022 78.6372 6.27387C78.5841 6.21752 78.4249 6.19873 78.2657 6.22691C78.1064 6.25509 77.9605 6.24569 77.9339 6.20812C77.8941 6.17055 78.0003 6.13299 78.1595 6.13299C78.3187 6.1236 78.4647 6.06724 78.4912 6.01089C78.531 5.94515 78.6372 5.97333 78.7831 6.07664C78.9291 6.18935 78.9556 6.26448 78.8628 6.31144ZM72.5467 6.16116C72.5467 6.2363 72.4936 6.27387 72.414 6.24569C72.3477 6.21751 72.2813 6.26448 72.2681 6.3584C72.2681 6.50867 72.2548 6.50867 72.1619 6.33961C72.069 6.17055 72.1619 6.08602 72.5202 6.02028C72.5334 6.01089 72.5467 6.07663 72.5467 6.16116ZM77.3236 6.10481C77.3236 6.15177 77.297 6.19873 77.2705 6.19873C77.2307 6.19873 77.1643 6.15177 77.1245 6.10481C77.0847 6.04846 77.1113 6.01089 77.1776 6.01089C77.2572 6.01089 77.3236 6.04846 77.3236 6.10481ZM50.3875 6.19873C50.3875 6.24569 50.3344 6.29265 50.2548 6.29265C50.1884 6.29265 50.1221 6.24569 50.1221 6.19873C50.1221 6.14238 50.1884 6.10481 50.2548 6.10481C50.3344 6.10481 50.3875 6.14238 50.3875 6.19873ZM75.9568 6.16116C75.917 6.18934 75.7976 6.19874 75.7047 6.17056C75.5986 6.14239 75.6384 6.1142 75.7843 6.1142C75.9303 6.10481 76.0099 6.13298 75.9568 6.16116ZM81.437 6.19873C81.437 6.24569 81.3441 6.26448 81.2379 6.2363C81.1318 6.19873 81.0389 6.16116 81.0389 6.14238C81.0389 6.1236 81.1318 6.10481 81.2379 6.10481C81.3441 6.10481 81.437 6.14238 81.437 6.19873ZM81.9677 6.24569C81.8748 6.32083 81.7421 6.38657 81.6625 6.38657C81.5829 6.38657 81.636 6.32083 81.7819 6.24569C82.1137 6.06724 82.18 6.06724 81.9677 6.24569ZM84.0908 6.29265C84.0908 6.45231 84.0642 6.4711 83.905 6.36779C83.7723 6.28326 83.759 6.22691 83.8784 6.17995C84.0907 6.07664 84.0908 6.08603 84.0908 6.29265ZM48.5696 6.26448C48.4767 6.28327 48.3175 6.28327 48.2379 6.26448C48.145 6.23631 48.2113 6.21752 48.3971 6.21752C48.5829 6.21752 48.6492 6.23631 48.5696 6.26448ZM13.2741 6.5838C13.1812 6.72468 12.9954 6.86557 12.8627 6.89374C12.73 6.92505 12.7344 6.9 12.876 6.8186C13.0219 6.73407 13.0618 6.65894 12.9821 6.62137C12.8096 6.55563 13.0617 6.32083 13.3006 6.32083C13.4067 6.32083 13.4067 6.40535 13.2741 6.5838ZM36.8265 6.45232C36.7867 6.64955 36.5877 6.77165 36.4285 6.7059C36.256 6.63077 36.309 6.4805 36.4948 6.49928C36.5744 6.51807 36.6408 6.47111 36.6275 6.40536C36.601 6.34901 36.654 6.29265 36.7204 6.29265C36.8 6.29265 36.8531 6.36779 36.8265 6.45232ZM62.2632 6.38657C62.2234 6.43353 62.104 6.45232 61.9978 6.41475C61.7192 6.34901 61.7457 6.29265 62.0775 6.29265C62.2234 6.29265 62.3163 6.33022 62.2632 6.38657ZM63.2451 6.5838C63.139 6.63076 62.9399 6.65894 62.794 6.65894L62.5286 6.64955L62.794 6.60259C62.9399 6.57442 63.1124 6.48989 63.1788 6.40536C63.2717 6.28327 63.3247 6.28326 63.3646 6.37718C63.3911 6.44292 63.338 6.53684 63.2451 6.5838ZM79.9774 6.43353C80.1233 6.55563 80.11 6.56502 79.9243 6.51806C79.8049 6.48989 79.712 6.42414 79.712 6.37718C79.712 6.25508 79.7916 6.27387 79.9774 6.43353ZM49.0606 6.52745C49.0606 6.61198 48.9411 6.66833 48.7686 6.65894C48.5431 6.64955 48.5165 6.64016 48.7023 6.60259C48.8217 6.58381 48.9279 6.51806 48.9279 6.4711C48.9279 6.42414 48.9544 6.38657 48.9942 6.38657C49.034 6.38657 49.0606 6.45231 49.0606 6.52745ZM8.96163 6.78104C8.86875 6.81861 8.73606 6.80921 8.64317 6.76225C8.56356 6.7059 8.47067 6.68712 8.43087 6.71529C8.40433 6.74347 8.36452 6.7059 8.36452 6.63076C8.36452 6.53684 8.44414 6.52745 8.73605 6.61198C8.98816 6.66833 9.05451 6.73408 8.96163 6.78104ZM26.2379 6.56502C26.2379 6.62137 26.1848 6.68712 26.1052 6.71529C26.0388 6.74347 25.9725 6.7059 25.9725 6.63076C25.9725 6.54623 26.0388 6.48049 26.1052 6.48049C26.1848 6.48049 26.2379 6.51806 26.2379 6.56502ZM47.1631 6.62137C47.1631 6.69651 47.11 6.73408 47.0437 6.7059C46.9773 6.67773 46.9641 6.61198 47.0039 6.56502C47.1233 6.44292 47.1631 6.46171 47.1631 6.62137ZM61.7723 6.61198C61.6794 6.68712 61.5732 6.72468 61.5467 6.71529C61.4804 6.65894 61.6794 6.48049 61.8121 6.48049C61.8784 6.48049 61.8652 6.53685 61.7723 6.61198ZM60.7373 6.66833C60.7373 6.71529 60.7108 6.76225 60.6842 6.76225C60.6444 6.76225 60.5781 6.71529 60.5383 6.66833C60.4985 6.61198 60.525 6.57441 60.5913 6.57441C60.671 6.57441 60.7373 6.61198 60.7373 6.66833ZM62.1571 7.10976C62.0111 7.21307 61.9315 7.23186 61.9315 7.15672C61.9315 7.09098 61.9979 7.04401 62.0775 7.04401C62.1571 7.04401 62.1836 6.97827 62.1305 6.87496C62.0642 6.74347 62.0775 6.73408 62.2102 6.83739C62.3561 6.93131 62.3428 6.97827 62.1571 7.10976ZM79.2741 6.8186C79.2343 6.84678 79.1149 6.85618 79.022 6.828C78.9158 6.79983 78.9556 6.77164 79.1016 6.77164C79.2476 6.76225 79.3272 6.79042 79.2741 6.8186ZM60.4056 6.95009C60.4454 6.99705 60.4188 7.04401 60.3525 7.04401C60.2729 7.04401 60.2065 6.99705 60.2065 6.95009C60.2065 6.89374 60.2331 6.85617 60.2596 6.85617C60.2994 6.85617 60.3658 6.89374 60.4056 6.95009ZM62.7276 6.95009C62.7276 6.99705 62.7011 7.04401 62.6746 7.04401C62.6348 7.04401 62.5684 6.99705 62.5286 6.95009C62.4888 6.89374 62.5153 6.85617 62.5817 6.85617C62.6613 6.85617 62.7276 6.89374 62.7276 6.95009ZM46.9375 7.04401C46.9375 7.09097 46.8712 7.13793 46.7916 7.13793C46.7252 7.13793 46.6987 7.09097 46.7385 7.04401C46.7783 6.98766 46.8446 6.95009 46.8845 6.95009C46.911 6.95009 46.9375 6.98766 46.9375 7.04401ZM47.9194 7.03462C48.0389 7.16611 47.4948 7.22246 47.3489 7.10036C47.256 7.02523 47.3091 6.98767 47.5346 6.96888C47.7071 6.95949 47.8796 6.98766 47.9194 7.03462ZM8.64317 7.38212C8.73606 7.56057 8.66971 7.55118 8.39106 7.32577C8.17876 7.16611 8.17876 7.13793 8.35125 7.18489C8.47067 7.22246 8.60337 7.30699 8.64317 7.38212ZM23.7433 7.78598C23.5045 8.09592 23.3187 8.16166 23.3187 7.94564C23.3187 7.87051 23.4116 7.79537 23.5177 7.7578C23.8229 7.67327 23.7566 7.41969 23.4248 7.41969C23.2391 7.41969 23.2258 7.37586 23.385 7.2882C23.6106 7.1755 23.6637 7.1755 23.8096 7.32577C23.9556 7.46665 23.9423 7.55118 23.7433 7.78598ZM24.4466 7.4103C24.4864 7.45726 24.4598 7.523 24.3802 7.56057C24.3139 7.58875 24.2475 7.55118 24.2475 7.47604C24.2475 7.30699 24.3271 7.27881 24.4466 7.4103ZM23.4514 7.60753C23.4514 7.65449 23.385 7.70145 23.3054 7.70145C23.2391 7.70145 23.2125 7.65449 23.2523 7.60753C23.2922 7.55118 23.3585 7.51361 23.3983 7.51361C23.4248 7.51361 23.4514 7.55118 23.4514 7.60753ZM24.42 8.07713C24.2608 8.18984 24.1546 8.20862 24.0883 8.13348C23.9158 7.95503 23.9689 7.90808 24.3139 7.90808C24.6589 7.90808 24.6456 7.91747 24.42 8.07713Z" fill="#CDCDCD"/>
<path fill-rule="evenodd" clip-rule="evenodd" d="M41.0461 5.29795C41.0063 5.34491 41.0594 5.40126 41.1655 5.43883C41.3646 5.49518 41.5503 5.37308 41.4044 5.26977C41.285 5.18524 41.1257 5.19464 41.0461 5.29795Z" fill="#CDCDCD"/>
<path fill-rule="evenodd" clip-rule="evenodd" d="M4.29097 6.10566C4.34405 6.18079 4.38386 6.24654 4.4104 6.24654C4.43694 6.24654 4.47674 6.18079 4.52982 6.10566C4.56963 6.02113 4.52982 5.96478 4.4104 5.96478C4.29098 5.96478 4.25117 6.02113 4.29097 6.10566Z" fill="#CDCDCD"/>
<path fill-rule="evenodd" clip-rule="evenodd" d="M4.01242 6.24654C4.05222 6.2935 4.11857 6.34046 4.15837 6.34046C4.18491 6.34046 4.21145 6.2935 4.21145 6.24654C4.21145 6.19019 4.14511 6.15262 4.06549 6.15262C3.99915 6.15262 3.97261 6.19019 4.01242 6.24654Z" fill="#CDCDCD"/>
<path fill-rule="evenodd" clip-rule="evenodd" d="M19.8688 6.34046C19.8688 6.38742 19.9352 6.43438 20.0148 6.43438C20.0811 6.43438 20.1077 6.38742 20.0679 6.34046C20.0281 6.28411 19.9617 6.24654 19.9219 6.24654C19.8954 6.24654 19.8688 6.28411 19.8688 6.34046Z" fill="#CDCDCD"/>
<path fill-rule="evenodd" clip-rule="evenodd" d="M35.4731 8.10616C35.4333 8.15312 35.4864 8.19069 35.5925 8.19069C35.6987 8.19069 35.7518 8.15312 35.712 8.10616C35.6722 8.0686 35.6191 8.03102 35.5925 8.03102C35.566 8.03102 35.5129 8.0686 35.4731 8.10616Z" fill="#CDCDCD"/>
<path fill-rule="evenodd" clip-rule="evenodd" d="M0.270485 8.45366C0.270485 8.52879 0.32356 8.56636 0.389905 8.53819C0.45625 8.51001 0.469522 8.44427 0.429715 8.39731C0.310294 8.27521 0.270485 8.29399 0.270485 8.45366Z" fill="#CDCDCD"/>
<path fill-rule="evenodd" clip-rule="evenodd" d="M0.894104 8.68846C0.894104 8.73542 0.960446 8.78238 1.04006 8.78238C1.1064 8.78238 1.13295 8.73542 1.09314 8.68846C1.05333 8.63211 0.986986 8.59454 0.947179 8.59454C0.920641 8.59454 0.894104 8.63211 0.894104 8.68846Z" fill="#CDCDCD"/>
<path fill-rule="evenodd" clip-rule="evenodd" d="M0.496056 8.83873C0.496056 8.91387 0.562401 8.95144 0.628746 8.92326C0.70836 8.89509 0.761436 8.82934 0.761436 8.77299C0.761436 8.72603 0.70836 8.68846 0.628746 8.68846C0.562401 8.68846 0.496056 8.7542 0.496056 8.83873Z" fill="#CDCDCD"/>
<path fill-rule="evenodd" clip-rule="evenodd" d="M69.6276 8.78239C69.6276 8.90449 69.9991 9.01719 70.1318 8.93266C70.1716 8.89509 70.1318 8.82935 70.0257 8.78239C69.7603 8.66029 69.6276 8.66969 69.6276 8.78239Z" fill="#CDCDCD"/>
<path fill-rule="evenodd" clip-rule="evenodd" d="M81.2115 9.0078C81.2779 9.15807 81.53 9.17685 81.6096 9.02658C81.6627 8.93266 81.6096 8.89509 81.4238 8.90449C81.2911 8.91388 81.185 8.96084 81.2115 9.0078Z" fill="#CDCDCD"/>
<path fill-rule="evenodd" clip-rule="evenodd" d="M10.7132 9.52435C10.7132 9.57131 10.7795 9.64644 10.8459 9.67462C10.9255 9.70279 10.9786 9.6934 10.9786 9.63705C10.9786 9.59009 10.9255 9.51495 10.8459 9.48678C10.7795 9.4586 10.7132 9.46799 10.7132 9.52435Z" fill="#CDCDCD"/>
</svg>
