<svg width="210" height="14" viewBox="0 0 210 14" fill="none" xmlns="http://www.w3.org/2000/svg">
<path fill-rule="evenodd" clip-rule="evenodd" d="M209.409 6.17164C209.141 6.17164 209.033 5.94841 209.194 5.72519C209.409 5.45731 209.141 4.74298 208.711 4.16259C208.228 3.53755 208.013 3.04644 208.228 3.04644C209.355 3.04644 205.596 1.84101 203.018 1.34991C198.936 0.590932 191.309 0.278412 190.074 0.858806C189.483 1.08203 189.054 1.12668 189.054 0.903452C189.054 0.412349 188.302 0.367703 182.609 0.412349C181.696 0.412349 165.207 0.323056 160.32 0.27841C158.547 0.27841 154.465 0.189119 151.189 0.0998273C144.637 -0.0787558 138.46 -0.0341102 123.153 0.3677L121.274 0.3677C120.898 0.3677 111.982 0.456991 101.509 0.590928C70.0358 0.903446 67.8875 0.903446 66.6522 0.590926C66.0077 0.456989 65.5243 0.501635 65.5243 0.769509C65.5243 1.03738 63.1611 1.17132 59.0793 1.03738C55.4808 0.948091 52.5269 1.08203 52.3657 1.30526C52.1509 1.52849 51.775 1.70707 51.5064 1.70707C51.1842 1.70707 51.0768 1.52849 51.2379 1.30526C51.399 1.08203 50.0562 0.992737 48.1765 1.08203C46.3504 1.21597 41.3555 1.3499 37.0588 1.39455C32.7622 1.48384 28.9488 1.66242 28.5729 1.88565C28.2506 2.06423 27.9284 2.06423 27.9284 1.841C27.9284 1.39455 19.711 1.3499 19.3351 1.75171C19.1739 1.93029 18.046 1.93029 16.8107 1.70707C15.5217 1.52848 14.6624 1.57313 14.8235 1.75171C15.1995 2.28746 13.8031 2.24281 12.1381 1.70707C11.3862 1.48384 10.7417 1.43919 10.7417 1.66242C10.7417 1.88565 10.2583 1.97494 9.66753 1.841C9.07674 1.70707 8.27109 1.841 7.89513 2.10888C7.46545 2.37675 6.17645 2.51069 4.94116 2.37675C3.65216 2.28746 2.79285 2.37675 2.95398 2.59998C3.1151 2.82321 3.00769 3.09108 2.68542 3.26966C2.41689 3.4036 2.14835 3.31431 2.14835 3.09108C2.14835 2.82321 1.66498 2.59998 1.07419 2.59998C0.483398 2.59998 1.51354e-05 2.82321 1.51256e-05 3.04644C1.51139e-05 3.31431 0.214844 3.49289 0.537094 3.49289C0.805633 3.49289 0.913071 3.80541 0.751953 4.16258C0.483398 4.69833 0.805649 4.78762 2.09465 4.65368C3.38365 4.51974 3.75957 4.65368 3.65215 5.23407C3.54472 5.68053 3.867 5.90376 4.40408 5.90376C4.94116 5.85911 5.26344 5.94841 5.10231 6.12699C4.9949 6.30557 5.20973 6.97526 5.6394 7.64494C6.06906 8.31463 6.23016 8.85038 6.01532 8.89502C5.80049 8.89502 6.12277 9.0736 6.71356 9.25219C7.30435 9.47541 9.07672 9.60935 10.5806 9.56471C12.89 9.47542 13.266 9.56471 12.7826 10.0558C12.3529 10.5469 12.4604 10.5916 13.4808 10.4576C14.179 10.3237 14.8772 10.2344 15.0384 10.1897C15.1995 10.1451 15.8977 10.1451 16.5959 10.1897C17.509 10.2344 17.7238 10.1005 17.4015 9.654C17.133 9.34148 16.8644 8.67179 16.8107 8.22534C16.6496 7.46636 16.757 7.46636 17.8312 8.44856C18.5294 9.02896 18.8517 9.654 18.6368 9.78794C18.3683 9.96652 18.4757 10.2344 18.8517 10.413C19.2276 10.6362 19.8721 10.413 20.4629 9.78794C21.376 8.85038 21.4297 8.85038 21.7519 9.74329C22.2353 11.038 22.9872 10.8594 22.6649 9.52006C22.5575 8.89502 22.1816 8.40392 21.8593 8.40392C21.5371 8.40392 21.4296 8.26998 21.5908 8.13604C21.8056 8.00211 22.4501 8.13604 23.0946 8.40392C24.1151 8.85037 24.1688 8.85038 23.5243 8.00211C23.202 7.51101 22.7187 7.19848 22.5576 7.28778C22.3427 7.37707 22.1815 7.19848 22.1815 6.84132C22.1815 6.48415 22.5038 6.17163 22.9335 6.17163C23.3094 6.17163 23.578 6.30557 23.5243 6.5288C23.4706 6.70738 23.7392 7.33242 24.1151 7.91282C24.4911 8.49321 24.5985 9.0736 24.3837 9.25219C23.1484 9.96652 23.7928 10.5469 25.5652 10.413C26.8542 10.3683 27.5524 10.5023 27.7672 10.9487C28.0358 11.4398 28.2506 11.4398 29.0563 10.8148C29.8619 10.2344 30.0767 10.1897 30.0767 10.6808C30.0767 11.2166 30.1841 11.172 30.6138 10.6362C30.9361 10.2344 30.8824 9.87723 30.5601 9.69864C30.1842 9.52006 30.3453 9.29683 30.8287 9.1629C31.4732 8.93967 31.688 9.1629 31.688 9.92187C31.688 10.6808 32.1177 11.1273 33.2456 11.4398C34.0512 11.6631 35.0716 11.7077 35.5013 11.5291C35.8772 11.3059 36.3606 11.2166 36.5755 11.3505C36.7903 11.4398 37.1125 11.3505 37.3274 11.0827C37.4885 10.8594 37.9182 10.6362 38.2404 10.6362C38.6163 10.6362 38.5627 10.8594 38.1867 11.2612C37.6496 11.7523 37.7571 11.9756 38.6164 12.1988C39.2609 12.3327 40.0128 12.3327 40.3887 12.1095C41.3018 11.6631 42.3759 11.6631 43.8798 12.0649C44.8465 12.3327 45.0077 12.2434 44.7929 11.6184C44.6317 11.2166 44.8465 11.3505 45.2762 11.9309C45.8133 12.6453 46.1355 12.8238 46.2967 12.422C46.4578 11.9309 46.8337 11.9756 48.2301 12.556C49.1969 12.9131 49.8414 13.0917 49.6803 12.8685C49.2507 12.3327 51.1305 11.8863 51.775 12.422C52.4195 12.9578 53.9233 13.0471 53.4936 12.5113C53.1176 11.9756 57.468 11.9309 58.7033 12.4667C59.4015 12.8238 59.8849 12.8238 60.3145 12.4667C61.0665 11.8416 61.9258 11.8416 61.4962 12.422C61.2813 12.6899 62.0333 12.8685 63.376 12.8685C64.7187 12.8685 65.4706 13.0471 65.2558 13.3149C64.7187 14.0739 65.5243 13.806 66.7596 12.8238C67.78 12.0649 67.9411 12.0202 68.1023 12.6006C68.2097 13.0471 68.5319 13.181 68.9079 13.0024C70.1432 12.3774 72.7749 12.4667 73.7417 13.2257C75.4066 14.4757 82.335 14.1186 81.3683 12.8238C80.8849 12.1988 81.4757 12.3327 82.3888 13.1364C82.8721 13.4935 83.2481 13.6275 83.2481 13.3596C83.2481 13.0917 83.624 12.8685 84.1074 12.8685C84.5371 12.8685 84.8056 13.0471 84.5908 13.3149C84.4297 13.5382 84.9668 13.6721 85.8798 13.6275C86.7392 13.5828 87.3299 13.4042 87.2225 13.2257C86.8466 12.6899 88.0281 12.3774 90.3913 12.3327C91.6266 12.3327 92.9693 12.1095 93.3452 11.8863C93.8286 11.5291 93.9361 11.5738 93.7212 12.0649C93.4527 12.6006 93.7212 12.7346 94.7417 12.6453C95.601 12.556 96.353 12.7792 96.6752 13.2257C96.9975 13.7019 97.1765 13.7168 97.2123 13.2703C97.2123 12.8238 97.8031 12.422 98.555 12.3327C99.2532 12.1988 99.7366 12.2881 99.5755 12.4667C99.4143 12.6899 99.5755 12.8685 99.844 12.8685C100.166 12.8685 100.435 12.6453 100.435 12.422C100.435 12.1095 100.864 12.1542 101.67 12.5113C103.389 13.3149 104.731 13.4042 104.731 12.7346C104.731 12.0649 104.839 12.0649 108.384 11.797C109.619 11.7077 110.639 11.8416 110.639 12.0649C110.639 12.2881 110.908 12.3327 111.23 12.1542C111.552 12.0202 113.54 11.8416 115.634 11.7523C117.944 11.7077 119.501 11.4845 119.662 11.172C119.77 10.8594 120.092 10.6362 120.361 10.6362C120.683 10.6362 120.79 10.8148 120.629 11.038C120.092 11.7077 121.972 12.0202 122.885 11.4398C123.529 10.9934 123.744 10.9934 123.905 11.4398C124.066 11.7077 124.389 11.8863 124.657 11.7077C124.926 11.5738 125.141 11.7524 125.141 12.1095C125.141 12.7792 128.148 12.6453 128.685 11.9309C128.847 11.7077 129.222 11.5291 129.491 11.5291C129.813 11.5291 129.867 11.7523 129.652 12.0649C129.384 12.3774 129.545 12.4667 130.082 12.2881C130.565 12.1542 131.21 12.2881 131.586 12.556C132.069 12.9578 132.176 12.9578 131.962 12.6006C131.747 12.2881 131.962 11.9309 132.445 11.797C132.875 11.6631 133.143 11.7077 132.982 11.9309C132.821 12.1542 133.036 12.4667 133.519 12.6006C133.949 12.7346 134.164 12.6899 134.003 12.422C133.841 12.1542 133.949 11.9756 134.217 11.9756C135.238 11.9756 135.614 11.8863 136.634 11.4398C137.332 11.1273 137.494 11.1273 137.279 11.4845C137.064 11.7524 137.225 11.9756 137.708 11.9756C138.138 11.9756 138.675 11.7524 138.836 11.4845C139.105 11.2166 139.427 11.2612 139.803 11.7524C140.394 12.3327 140.609 12.2881 141.951 11.3059C143.133 10.3683 143.402 10.279 143.402 10.9041C143.402 11.4845 143.563 11.5291 144.153 11.1273C144.744 10.7255 144.959 10.7255 145.12 11.1273C145.228 11.4398 145.765 11.7077 146.248 11.797C146.731 11.8416 147.054 11.7077 146.839 11.4845C146.678 11.2612 146.946 11.0827 147.376 11.0827C147.859 11.0827 148.235 11.3059 148.235 11.6184C148.235 12.0202 148.396 12.0202 148.88 11.6184C149.578 11.038 151.78 10.9041 152.156 11.4398C152.263 11.6184 152.263 11.4845 152.21 11.2166C151.941 10.413 153.069 10.5023 154.304 11.3952C155.217 12.1095 155.325 12.1095 155.808 11.4845C156.13 10.9934 156.829 10.8148 158.01 10.9041C158.977 11.038 160.32 10.8594 160.964 10.5916C161.824 10.1898 162.737 10.1898 164.294 10.5469C165.905 10.8594 166.604 10.8594 166.926 10.4576C167.141 10.1898 167.785 9.96652 168.376 9.96652C168.967 9.96652 169.396 9.69865 169.289 9.38613C169.235 9.02897 169.396 8.89503 169.719 9.07361C170.041 9.25219 170.202 9.654 170.041 9.96652C169.88 10.3237 170.148 10.5023 170.685 10.413C171.169 10.3237 171.598 10.2344 171.598 10.1898C171.598 10.1451 172.511 10.0558 173.639 9.96652C175.358 9.83259 175.734 9.92188 176.164 10.7701C176.486 11.4845 176.647 11.5291 176.647 10.9934C176.701 10.1451 178.312 9.60936 179.601 10.0112C180.138 10.1898 180.568 10.0112 180.783 9.52007C181.051 8.93967 181.266 8.89503 181.588 9.34149C181.803 9.65401 182.501 9.96652 183.092 10.0558C184.113 10.1898 184.435 9.78794 184.274 8.62715C184.22 8.40393 184.542 8.49322 184.918 8.93967C185.455 9.47542 186.315 9.60936 188.517 9.52007C190.128 9.43078 191.524 9.1629 191.632 8.89503C191.739 8.58251 192.061 8.62716 192.545 8.98432C192.921 9.29684 193.136 9.65401 193.028 9.83259C192.867 10.0112 193.243 10.1005 193.834 10.0558C194.425 10.0558 194.801 9.87723 194.639 9.69865C194.532 9.52007 194.962 9.29684 195.66 9.11826C197.432 8.71645 197.647 8.76109 197.647 9.60936C197.647 10.2344 197.862 10.1898 198.775 9.34149C199.634 8.58251 200.064 8.44857 200.332 8.85038C200.601 9.20755 201.031 9.25219 201.46 9.02897C202.427 8.53786 205.703 8.49322 205.703 8.98432C205.703 9.1629 206.133 9.11826 206.724 8.89503C207.261 8.62716 207.905 8.58251 208.12 8.76109C208.55 9.11826 210 7.60031 210 6.75204C210 6.43952 209.731 6.17164 209.409 6.17164ZM207.422 5.0555C207.261 4.92156 207.422 4.5644 207.798 4.25188C208.335 3.85007 208.389 3.89471 208.067 4.51975C207.905 4.96621 207.583 5.18944 207.422 5.0555ZM197.862 8.13605C197.432 8.26999 197.217 8.22534 197.379 7.95747C197.54 7.6896 197.916 7.51101 198.238 7.51101C198.99 7.51101 198.829 7.82353 197.862 8.13605ZM187.98 7.51101C187.711 7.51101 187.442 7.33243 187.442 7.06455C187.442 6.84133 187.711 6.6181 187.98 6.6181C188.302 6.6181 188.517 6.84133 188.517 7.06455C188.517 7.33243 188.302 7.51101 187.98 7.51101ZM173.317 8.89503C172.834 8.44857 172.887 8.40393 173.639 8.6718C174.176 8.80574 174.445 9.07361 174.284 9.20755C174.123 9.34149 173.693 9.20755 173.317 8.89503ZM158.44 9.29684C158.171 9.29684 157.903 9.07361 157.903 8.80574C157.903 8.58251 158.171 8.49322 158.44 8.62715C158.762 8.76109 158.977 8.98432 158.977 9.11826C158.977 9.20755 158.762 9.29684 158.44 9.29684ZM140.286 11.7524C140.125 11.6184 140.286 11.2612 140.662 10.9487C141.2 10.5469 141.253 10.5916 140.931 11.2166C140.77 11.6631 140.448 11.8863 140.286 11.7524ZM138.836 9.92188C138.407 9.7433 138.031 9.56471 138.031 9.47542C138.031 9.38613 138.407 9.29684 138.836 9.29684C139.266 9.29684 139.642 9.47542 139.642 9.74329C139.642 9.96652 139.266 10.0558 138.836 9.92188ZM102.905 12.8685C102.798 12.8685 102.529 12.556 102.368 12.1542C102.207 11.797 102.261 11.6184 102.583 11.7523C103.12 12.0202 103.335 12.8685 102.905 12.8685ZM75.2992 13.5382C75.1381 13.4042 75.2993 13.0471 75.6752 12.7346C76.2123 12.3327 76.266 12.3774 75.9438 13.0024C75.7826 13.4489 75.4603 13.6721 75.2992 13.5382ZM58.8107 10.9487C58.3811 10.9487 58.1662 10.7701 58.3274 10.5469C58.4885 10.3237 58.8644 10.279 59.133 10.413C59.8312 10.8148 59.7238 10.9487 58.8107 10.9487ZM46.4578 6.08235C46.2967 5.94841 46.5652 5.68053 47.1023 5.5466C47.8542 5.27872 47.9079 5.32337 47.4245 5.76982C47.0486 6.08234 46.6189 6.21628 46.4578 6.08235ZM42.2148 11.0827C42.0537 11.0827 41.7852 10.9041 41.6241 10.6362C41.4629 10.413 41.5704 10.1897 41.8389 10.1897C42.1611 10.1897 42.4297 10.413 42.4297 10.6362C42.4297 10.9041 42.3222 11.0827 42.2148 11.0827ZM39.7443 8.62715C39.4757 8.76108 39.2072 8.5825 39.2072 8.18069C39.2072 7.77888 39.4757 7.6003 39.7443 7.73423C40.0665 7.86817 40.2813 8.0914 40.2813 8.18069C40.2813 8.26998 40.0665 8.49321 39.7443 8.62715ZM38.5626 10.0558C38.133 9.92187 38.2941 9.78794 38.8849 9.78794C39.4757 9.74329 39.7979 9.87723 39.5831 10.0112C39.422 10.1451 38.9386 10.1897 38.5626 10.0558ZM37.8108 9.29683C37.3811 9.29683 37.1662 9.0736 37.3274 8.85038C37.5422 8.5825 37.9182 8.49321 38.1867 8.62715C38.9386 9.02896 38.7775 9.29683 37.8108 9.29683ZM34.3197 10.8594C33.6752 11.038 32.9233 10.9487 32.5473 10.6362C32.1176 10.1897 32.1176 10.1451 32.601 10.3683C32.9233 10.5023 33.353 10.4576 33.5678 10.1897C33.9975 9.60935 35.4476 9.60935 35.4476 10.1451C35.4476 10.3683 34.9642 10.7255 34.3197 10.8594ZM28.4655 6.17163C27.8747 5.90376 27.3913 5.59124 27.3913 5.4573C27.3913 5.36801 27.8747 5.4573 28.4655 5.72518C29.0563 5.99305 29.5397 6.30557 29.5397 6.43951C29.5397 6.5288 29.0563 6.43951 28.4655 6.17163ZM23.0947 4.83226C22.8261 4.83226 22.5576 4.60904 22.5576 4.34116C22.5576 4.11793 22.8261 4.02864 23.0947 4.16258C23.4169 4.29652 23.6317 4.51974 23.6317 4.65368C23.6317 4.74297 23.4169 4.83226 23.0947 4.83226ZM20.087 5.85912C19.9259 5.5466 19.4424 5.4573 18.959 5.59124C18.422 5.76982 18.2071 5.68053 18.422 5.41266C18.6368 5.14478 18.5294 4.83226 18.1534 4.74297C17.7775 4.60904 17.8849 4.43045 18.4757 4.25187C18.9591 4.07329 19.2813 4.11793 19.1202 4.34116C18.9591 4.56439 19.1739 4.83226 19.6036 5.01085C20.0333 5.14478 20.4092 5.50195 20.3555 5.81447C20.3555 6.21628 20.2481 6.26093 20.087 5.85912ZM9.66753 6.39486C7.84143 6.39486 7.51921 5.9484 9.07675 5.59124C9.82867 5.4573 11.2788 5.94841 11.2788 6.39486L9.66753 6.39486ZM9.02299 9.11825C7.41174 9.02896 6.3376 8.44856 6.76726 7.86817C6.9821 7.6003 7.30431 7.6003 7.68027 7.91282C8.00252 8.18069 8.70074 8.40392 9.23782 8.40392C9.77492 8.40392 10.2046 8.5825 10.2046 8.76109C10.2046 8.98431 9.6675 9.11825 9.02299 9.11825ZM6.49872 4.87691C7.08951 5.18943 7.03578 5.27872 6.28386 5.27872C5.2097 5.27872 5.2634 4.29652 6.33757 4.11793C6.82094 4.02864 6.821 4.07329 6.39134 4.25187C5.96167 4.43045 6.01535 4.60904 6.49872 4.87691ZM6.33757 6.79667C6.12274 6.66274 5.90794 6.39486 5.90794 6.12699C5.90794 5.90376 6.12274 5.72518 6.33757 5.72518C6.60611 5.72518 6.82097 6.0377 6.82097 6.39486C6.82097 6.75203 6.60611 6.93061 6.33757 6.79667Z" fill="#CDCDCD"/>
</svg>
